PathFileType	4	(x/y/z)	S01_M20_T14.trc
DataRate	CameraRate	NumFrames	NumMarkers	Units	OrigDataRate	OrigDataStartFrame	OrigNumFrames
240	240	9	51	mm	240	243	485
Frame#	Time	Sternum			R.Acromium			L.Acromium			Top.Head			R.ASIS			L.ASIS			R.PSIS			L.PSIS			R.Great.Tro			L.Great.Tro			R.Iliac.Crest			L.Iliac.Crest			V.Sacral			R.Thigh.Upper.Post			R.Thigh.Lower.Ant			R.Thigh.Lower.Post			R.Thigh.Upper.Ant			R.Knee.Lat			R.Knee.Med			R.Shank.Upper.Post			R.Shank.Lower.Ant			R.Shank.Lower.Post			R.Shank.Upper.Ant			R.Ankle.Lat			R.Ankle.Med			R.Heel.Upper			R.Heel.Med			R.Heel.Lat			R.Toe.Lat			R.Toe.Med			R.Toe.Tip			L.Thigh.Upper.Post			L.Thigh.Lower.Ant			L.Thigh.Lower.Post			L.Thigh.Upper.Ant			L.Knee.Lat			L.Knee.Med			L.Shank.Upper.Post			L.Shank.Lower.Ant			L.Shank.Lower.Post			L.Shank.Upper.Ant			L.Ankle.Lat			L.Ankle.Med			L.Heel.Upper			L.Heel.Med			L.Heel.Lat			L.Toe.Lat			L.Toe.Med			L.Toe.Tip			Cervical.Spine			Back			
		X1	Y1	Z1	X2	Y2	Z2	X3	Y3	Z3	X4	Y4	Z4	X5	Y5	Z5	X6	Y6	Z6	X7	Y7	Z7	X8	Y8	Z8	X9	Y9	Z9	X10	Y10	Z10	X11	Y11	Z11	X12	Y12	Z12	X13	Y13	Z13	X14	Y14	Z14	X15	Y15	Z15	X16	Y16	Z16	X17	Y17	Z17	X18	Y18	Z18	X19	Y19	Z19	X20	Y20	Z20	X21	Y21	Z21	X22	Y22	Z22	X23	Y23	Z23	X24	Y24	Z24	X25	Y25	Z25	X26	Y26	Z26	X27	Y27	Z27	X28	Y28	Z28	X29	Y29	Z29	X30	Y30	Z30	X31	Y31	Z31	X32	Y32	Z32	X33	Y33	Z33	X34	Y34	Z34	X35	Y35	Z35	X36	Y36	Z36	X37	Y37	Z37	X38	Y38	Z38	X39	Y39	Z39	X40	Y40	Z40	X41	Y41	Z41	X42	Y42	Z42	X43	Y43	Z43	X44	Y44	Z44	X45	Y45	Z45	X46	Y46	Z46	X47	Y47	Z47	X48	Y48	Z48	X49	Y49	Z49	X50	Y50	Z50	X51	Y51	Z51	

243	1.0083	-77.542	1265.3	285.54	-161	1511.7	481.61	-205.25	1546.1	159.35	-79.801	1826.3	315.87	-127.91	1010.4	438.16	-129.9	1024.8	171.38	-366.81	1064.3	345.18	-369.81	1060.4	243.13	-212.94	961.43	516.19	-230.07	977.85	88.146	-212	1108.7	508.67	-243.92	1109.3	102.97	-381.31	1025.6	291.77	-284.74	664.92	483.43	-232.12	583.5	448.85	-300.14	579.44	461.98	-212.51	669.7	471.95	-298.42	510.92	452.73	-297.94	518.34	307.47	-397.53	372.45	470.94	-363.41	277.48	424.86	-421.5	306.37	457.87	-342.43	345.83	444.35	-480.08	110.87	414.42	-449.63	114.39	321.07	-555.95	86.499	356.13	-542.22	55.552	327.81	-546.63	56.365	392.37	-358.66	35.14	452.65	-325.65	40.391	326.62	-261.51	50.611	382.32	-145.77	694.47	107.09	-40.099	663.01	100.11	-99.344	617.33	125.75	-94.932	739.32	81.77	-15.976	564.18	111.52	11.976	571.37	256.9	-18.897	418.98	92.129	71.029	356.14	110.96	9.3245	346.13	93.865	44.302	428.08	104.76	77.405	137.59	122.84	103.82	159.83	218.21	28.313	77.892	174.04	52.937	60.889	206.48	46.568	58.524	143.45	235.97	133.9	95.081	263.41	157.41	213.81	310.92	193.77	157.03	-258.03	1590.9	337.69	-369.03	1282.9	341.49
244	1.0125	-72.232	1264	285.21	-155.75	1510.6	480.91	-199.58	1544.8	158.58	-74.244	1825.1	315.09	-122.91	1009.5	438.14	-124.3	1023.7	171.23	-361.65	1063.2	344.63	-364.47	1059.2	242.57	-208.21	960.61	516.03	-224.48	976.52	87.911	-207.21	1107.7	508.35	-238.2	1108	102.63	-376.06	1024.5	291.23	-281.46	664.53	483.34	-229.2	582.83	448.78	-297.25	579.1	461.95	-209.25	668.99	471.82	-296.06	510.51	452.72	-295.33	517.97	307.38	-395.95	372.58	470.89	-362.25	277.36	424.9	-420.26	306.6	457.79	-340.92	345.63	444.4	-479.78	111.27	414.34	-449.25	114.7	321.02	-555.69	87.124	356.01	-542.04	56.136	327.71	-546.46	56.962	392.25	-358.65	35.155	452.68	-325.54	40.442	326.63	-261.41	50.463	382.37	-140.78	693.04	106.92	-35.119	661.5	100.15	-94.454	615.86	125.65	-89.856	737.84	81.686	-10.77	562.86	111.66	16.418	569.8	257.14	-11.306	417.56	92.109	79.621	356.18	111.16	18.107	345.17	93.858	51.735	427.71	104.92	89.92	137.58	122.98	115.6	160.27	218.4	41.605	77.032	173.9	66.45	60.396	206.52	60.41	57.976	143.4	248.65	136.76	95.724	275.24	160.77	214.55	322.31	197.98	157.94	-252.61	1589.8	336.85	-363.84	1281.8	340.71
245	1.0167	-66.896	1262.8	284.87	-150.48	1509.5	480.19	-193.9	1543.5	157.78	-68.67	1824	314.28	-117.9	1008.5	438.12	-118.67	1022.5	171.09	-356.46	1062.1	344.06	-359.09	1058	241.99	-203.48	959.79	515.86	-218.83	975.18	87.665	-202.4	1106.8	508.02	-232.44	1106.7	102.27	-370.78	1023.3	290.67	-278.14	664.13	483.24	-226.25	582.16	448.72	-294.32	578.77	461.9	-205.96	668.27	471.72	-293.66	510.1	452.72	-292.65	517.58	307.29	-394.33	372.72	470.83	-361.04	277.25	424.95	-418.97	306.86	457.71	-339.37	345.44	444.46	-479.45	111.69	414.27	-448.85	115.04	320.98	-555.41	87.794	355.89	-541.85	56.765	327.6	-546.29	57.603	392.13	-358.64	35.166	452.71	-325.42	40.497	326.64	-261.31	50.311	382.43	-135.72	691.62	106.72	-30.066	660	100.19	-89.5	614.4	125.53	-84.702	736.37	81.6	-5.5265	561.54	111.78	20.868	568.23	257.37	-3.7899	416.16	92.088	88.073	356.21	111.35	26.756	344.25	93.857	59.085	427.32	105.07	102.13	137.61	123.17	127.1	160.74	218.61	54.596	76.26	173.81	79.608	59.983	206.62	73.898	57.502	143.42	260.96	139.54	96.376	286.76	164.01	215.29	333.38	202.02	158.84	-247.16	1588.7	335.98	-358.63	1280.8	339.91
246	1.0208	-61.535	1261.5	284.51	-145.2	1508.4	479.45	-188.19	1542.2	156.96	-63.079	1822.8	313.43	-112.88	1007.5	438.1	-113	1021.3	170.94	-351.25	1061	343.47	-353.67	1056.7	241.37	-198.74	958.96	515.68	-213.14	973.83	87.407	-197.57	1105.8	507.68	-226.65	1105.4	101.9	-365.47	1022.2	290.07	-274.8	663.74	483.13	-223.25	581.49	448.68	-291.35	578.43	461.84	-202.63	667.56	471.63	-291.2	509.7	452.7	-289.88	517.19	307.2	-392.65	372.88	470.77	-359.8	277.15	424.99	-417.65	307.14	457.63	-337.77	345.26	444.52	-479.1	112.15	414.2	-448.43	115.39	320.94	-555.12	88.514	355.79	-541.65	57.441	327.51	-546.11	58.289	392.02	-358.62	35.174	452.73	-325.31	40.554	326.65	-261.2	50.154	382.48	-130.58	690.22	106.5	-24.933	658.53	100.24	-84.472	612.96	125.38	-79.463	734.93	81.512	-0.23628	560.23	111.88	25.336	566.67	257.59	3.647	414.8	92.067	96.381	356.21	111.55	35.265	343.34	93.864	66.352	426.92	105.21	114.01	137.67	123.38	138.31	161.21	218.86	67.263	75.56	173.78	92.387	59.633	206.77	87.005	57.087	143.49	272.91	142.19	97.032	297.93	167.11	216.03	344.12	205.87	159.72	-241.7	1587.6	335.08	-353.39	1279.8	339.1
247	1.025	-56.149	1260.2	284.15	-139.89	1507.3	478.69	-182.46	1540.9	156.11	-57.47	1821.5	312.55	-107.84	1006.6	438.07	-107.3	1020	170.79	-346.02	1060	342.84	-348.22	1055.5	240.73	-194.01	958.14	515.48	-207.4	972.47	87.138	-192.72	1104.8	507.33	-220.82	1104.1	101.5	-360.14	1021	289.45	-271.43	663.35	483.01	-220.22	580.83	448.65	-288.35	578.09	461.77	-199.27	666.85	471.56	-288.68	509.3	452.69	-287.03	516.77	307.12	-390.92	373.05	470.71	-358.52	277.06	425.03	-416.28	307.44	457.55	-336.12	345.09	444.58	-478.74	112.65	414.14	-447.99	115.78	320.91	-554.81	89.284	355.69	-541.44	58.169	327.42	-545.91	59.024	391.92	-358.61	35.179	452.75	-325.18	40.614	326.67	-261.09	49.994	382.54	-125.36	688.84	106.26	-19.711	657.08	100.29	-79.363	611.54	125.21	-74.135	733.53	81.426	5.1078	558.92	111.97	29.834	565.11	257.78	11.002	413.46	92.048	104.54	356.17	111.74	43.627	342.45	93.88	73.535	426.48	105.34	125.54	137.72	123.63	149.2	161.67	219.13	79.581	74.915	173.8	104.77	59.327	206.96	99.705	56.712	143.62	284.47	144.71	97.687	308.77	170.04	216.75	354.53	209.5	160.58	-236.21	1586.5	334.16	-348.13	1278.7	338.26
248	1.0292	-50.737	1258.9	283.77	-134.56	1506.2	477.9	-176.71	1539.6	155.24	-51.845	1820.3	311.63	-102.79	1005.6	438.04	-101.56	1018.8	170.63	-340.76	1058.9	342.18	-342.73	1054.3	240.06	-189.26	957.31	515.27	-201.6	971.11	86.857	-187.85	1103.9	506.96	-214.97	1102.8	101.09	-354.77	1019.9	288.79	-268.03	662.95	482.88	-217.14	580.17	448.64	-285.3	577.76	461.7	-195.86	666.14	471.51	-286.1	508.91	452.67	-284.1	516.35	307.04	-389.14	373.24	470.65	-357.2	276.99	425.08	-414.86	307.76	457.47	-334.43	344.93	444.63	-478.34	113.18	414.09	-447.54	116.2	320.89	-554.48	90.107	355.61	-541.23	58.95	327.35	-545.7	59.809	391.82	-358.59	35.181	452.76	-325.06	40.677	326.69	-260.98	49.83	382.6	-120.04	687.49	106	-14.395	655.67	100.36	-74.164	610.15	125.02	-68.712	732.15	81.344	10.513	557.63	112.05	34.376	563.57	257.96	18.273	412.15	92.032	112.55	356.09	111.93	51.836	341.57	93.904	80.633	426.02	105.47	136.7	137.76	123.9	159.76	162.09	219.42	91.523	74.31	173.87	116.72	59.047	207.21	111.97	56.361	143.79	295.63	147.05	98.339	319.25	172.78	217.47	364.61	212.89	161.42	-230.71	1585.4	333.21	-342.83	1277.7	337.41
249	1.0333	-45.298	1257.6	283.38	-129.2	1505.1	477.09	-170.94	1538.2	154.34	-46.202	1819.1	310.68	-97.725	1004.6	438	-95.798	1017.5	170.48	-335.48	1057.8	341.5	-337.21	1053.1	239.36	-184.51	956.49	515.05	-195.76	969.74	86.563	-182.96	1102.9	506.58	-209.08	1101.5	100.65	-349.38	1018.8	288.11	-264.59	662.56	482.74	-214.01	579.51	448.64	-282.2	577.42	461.61	-192.42	665.43	471.49	-283.45	508.52	452.65	-281.08	515.9	306.98	-387.3	373.44	470.59	-355.83	276.93	425.13	-413.39	308.11	457.39	-332.68	344.78	444.69	-477.93	113.74	414.05	-447.07	116.64	320.88	-554.14	90.985	355.53	-541	59.786	327.28	-545.48	60.645	391.74	-358.57	35.181	452.77	-324.93	40.74	326.71	-260.86	49.663	382.66	-114.63	686.17	105.73	-8.9783	654.3	100.44	-68.87	608.8	124.82	-63.19	730.82	81.269	15.984	556.35	112.12	38.972	562.06	258.12	25.456	410.86	92.02	120.41	355.95	112.13	59.886	340.69	93.938	87.646	425.52	105.59	147.48	137.77	124.2	169.97	162.46	219.74	103.06	73.727	173.98	128.24	58.774	207.49	123.79	56.014	144.02	306.38	149.2	98.985	329.37	175.29	218.17	374.33	215.99	162.23	-225.18	1584.2	332.24	-337.51	1276.6	336.54
250	1.0375	-39.833	1256.3	282.97	-123.82	1504.1	476.25	-165.15	1536.9	153.42	-40.544	1817.9	309.69	-92.644	1003.6	437.95	-90.007	1016.3	170.32	-330.17	1056.7	340.78	-331.65	1051.9	238.63	-179.76	955.68	514.82	-189.87	968.38	86.256	-178.05	1101.9	506.18	-203.16	1100.1	100.19	-343.95	1017.6	287.4	-261.12	662.18	482.59	-210.83	578.87	448.66	-279.05	577.09	461.52	-188.92	664.73	471.48	-280.74	508.14	452.63	-277.97	515.43	306.91	-385.4	373.67	470.52	-354.42	276.89	425.18	-411.87	308.48	457.31	-330.87	344.64	444.74	-477.48	114.34	414.02	-446.58	117.12	320.89	-553.77	91.919	355.47	-540.76	60.681	327.22	-545.25	61.534	391.66	-358.54	35.179	452.78	-324.8	40.806	326.73	-260.73	49.492	382.72	-109.11	684.89	105.45	-3.4565	652.97	100.53	-63.473	607.47	124.6	-57.566	729.52	81.204	21.529	555.1	112.17	43.635	560.58	258.27	32.55	409.61	92.014	128.1	355.75	112.32	67.772	339.82	93.982	94.575	424.98	105.71	157.86	137.73	124.52	179.82	162.76	220.07	114.17	73.15	174.15	139.29	58.488	207.81	135.13	55.655	144.28	316.7	151.13	99.623	339.11	177.56	218.86	383.72	218.8	163.02	-219.62	1583.1	331.23	-332.16	1275.5	335.65
251	1.0417	-34.341	1255	282.54	-118.42	1503	475.39	-159.34	1535.5	152.48	-34.87	1816.7	308.66	-87.546	1002.6	437.89	-84.191	1015	170.17	-324.84	1055.7	340.03	-326.06	1050.6	237.87	-174.99	954.87	514.56	-183.93	967.01	85.938	-173.12	1100.9	505.77	-197.2	1098.8	99.704	-338.5	1016.5	286.66	-257.6	661.8	482.44	-207.6	578.22	448.7	-275.85	576.76	461.42	-185.38	664.03	471.49	-277.96	507.76	452.6	-274.76	514.95	306.86	-383.44	373.91	470.46	-352.96	276.86	425.23	-410.29	308.87	457.24	-329.01	344.5	444.8	-477.01	114.98	414.01	-446.07	117.64	320.9	-553.38	92.912	355.43	-540.5	61.637	327.17	-545	62.478	391.6	-358.52	35.176	452.79	-324.66	40.872	326.76	-260.6	49.318	382.79	-103.49	683.64	105.17	2.174	651.69	100.63	-57.969	606.19	124.37	-51.837	728.27	81.149	27.15	553.87	112.22	48.377	559.14	258.4	39.552	408.37	92.014	135.64	355.49	112.52	75.487	338.94	94.036	101.42	424.4	105.84	167.82	137.64	124.86	189.3	162.97	220.42	124.81	72.563	174.35	149.87	58.173	208.16	145.96	55.267	144.57	326.6	152.82	100.25	348.48	179.55	219.53	392.74	221.27	163.78	-214.05	1582	330.2	-326.79	1274.5	334.74
